<?xml version="1.0" encoding="UTF-8"?>
<svg id="_レイヤー_2" data-name="レイヤー 2" xmlns="http://www.w3.org/2000/svg" viewBox="0 0 250 250">
  <defs>
    <style>
      .cls-1 {
        fill-rule: evenodd;
      }
    </style>
  </defs>
  <path class="cls-1" d="M225.32,81.01L138.15,15.62c-3.82-2.87-8.37-4.38-13.15-4.38s-9.32,1.52-13.15,4.38L24.68,81.01c-5.49,4.12-8.76,10.67-8.76,17.53v118.32c0,12.08,9.83,21.91,21.91,21.91h61.03c5.9,0,10.7-4.8,10.7-10.7v-73.48c0-8.52,6.93-15.45,15.45-15.45s15.45,6.93,15.45,15.45v73.48c0,5.9,4.8,10.7,10.7,10.7h61.03c12.08,0,21.91-9.83,21.91-21.91v-118.32c0-6.86-3.28-13.41-8.76-17.53ZM215.18,219.85h-55.82v-65.27c0-18.95-15.42-34.36-34.36-34.36s-34.36,15.42-34.36,34.36v65.27h-55.82v-122.82L125,29.4l90.18,67.64v122.82Z"/>
</svg>