<?xml version="1.0" encoding="UTF-8"?>
<svg id="_レイヤー_2" data-name="レイヤー 2" xmlns="http://www.w3.org/2000/svg" viewBox="0 0 250 250">
  <defs>
    <style>
      .cls-1 {
        fill-rule: evenodd;
      }
    </style>
  </defs>
  <path class="cls-1" d="M225.09,212.84l-76.31-101.74,64.45-73.66.1-.12c1.34-1.7,2-3.83,1.86-6-.16-2.33-1.21-4.46-2.97-6-1.59-1.4-3.64-2.16-5.75-2.16-2.53,0-4.93,1.09-6.59,2.99l-61.81,70.64L85.45,26.66c-1.64-2.19-4.26-3.5-6.99-3.5H31.91c-4.82,0-8.74,3.92-8.74,8.74,0,1.88.62,3.74,1.75,5.25l76.31,101.74-64.27,73.45c-1.54,1.76-2.3,4.01-2.14,6.34.16,2.33,1.21,4.46,2.97,6,1.6,1.39,3.64,2.16,5.75,2.16,2.53,0,4.93-1.09,6.59-2.99l61.81-70.66,52.61,70.14c1.64,2.19,4.26,3.5,6.99,3.5h46.55c4.82,0,8.74-3.92,8.74-8.74,0-1.88-.62-3.74-1.75-5.25ZM175.92,209.34L49.39,40.65h24.69l126.52,168.7h-24.69Z"/>
</svg>