<?xml version="1.0" encoding="UTF-8"?>
<svg id="_レイヤー_2" data-name="レイヤー 2" xmlns="http://www.w3.org/2000/svg" viewBox="0 0 250 250">
  <defs>
    <style>
      .cls-1 {
        fill-rule: evenodd;
      }
    </style>
  </defs>
  <path class="cls-1" d="M173.48,18.82h-96.96c-31.82,0-57.71,25.89-57.71,57.71v96.96c0,31.82,25.89,57.71,57.71,57.71h96.96c31.82,0,57.71-25.89,57.71-57.71v-96.96c0-31.82-25.89-57.71-57.71-57.71ZM212.73,173.48c0,21.64-17.61,39.25-39.25,39.25h-96.96c-21.64,0-39.25-17.61-39.25-39.25v-96.96c0-21.64,17.61-39.25,39.25-39.25h96.96c21.64,0,39.25,17.61,39.25,39.25v96.96Z"/>
  <path class="cls-1" d="M125,79.41c-25.14,0-45.58,20.45-45.58,45.58s20.45,45.59,45.58,45.59,45.59-20.45,45.59-45.59-20.45-45.58-45.59-45.58ZM125,152.13c-14.96,0-27.13-12.17-27.13-27.13s12.17-27.13,27.13-27.13,27.13,12.17,27.13,27.13-12.17,27.13-27.13,27.13Z"/>
  <path class="cls-1" d="M179.54,79.69c-5.09,0-9.23-4.14-9.23-9.23s4.14-9.23,9.23-9.23,9.23,4.14,9.23,9.23-4.14,9.23-9.23,9.23Z"/>
</svg>