<?xml version="1.0" encoding="UTF-8"?>
<svg id="_レイヤー_2" data-name="レイヤー 2" xmlns="http://www.w3.org/2000/svg" viewBox="0 0 250 250">
  <path d="M247.06,50.02l-.05-1.65v-.14c-.93-11.39-10.61-20.31-22.04-20.31H25.13l-1.75.06h-.14c-11.39.93-20.31,10.61-20.31,22.04v149.95s.06,1.65.06,1.65v.14c.93,11.39,10.61,20.31,22.03,20.31h199.89l1.84-.06c11.39-.93,20.31-10.6,20.31-22.03V50.02ZM214.28,47.13l-89.28,89.28L35.71,47.13h178.57ZM227.86,202.87H22.14V60.71l91.66,91.66c2.99,2.99,6.97,4.64,11.2,4.64s8.21-1.65,11.2-4.63l91.66-91.66v142.16Z"/>
</svg>